PathFileType	4	(X/Y/Z)	Kaydara	
DataRate	CameraRate	NumFrames	NumMarkers	Units	OrigDataRate	OrigDataStartFrame	OrigNumFrames	
120.00	120.00	4	72	mm	120.00	168	268	
Frame#	Time	Hips			RightUpLeg			RightLeg			RightFoot			RightFoot_End			LeftUpLeg			LeftLeg			LeftFoot			LeftFoot_End			Spine			Spine1			Spine2			Spine3			Neck			Head			Head_End			RightShoulder			RightArm			RightForeArm			RightHand			RightHandThumb1			RightHandThumb2			RightHandThumb3			RightHandThumb3_End			RightInHandIndex			RightHandIndex1			RightHandIndex2			RightHandIndex3			RightHandIndex3_End			RightInHandMiddle			RightHandMiddle1			RightHandMiddle2			RightHandMiddle3			RightHandMiddle3_End			RightInHandRing			RightHandRing1			RightHandRing2			RightHandRing3			RightHandRing3_End			RightInHandPinky			RightHandPinky1			RightHandPinky2			RightHandPinky3			RightHandPinky3_End			LeftShoulder			LeftArm			LeftForeArm			LeftHand			LeftHandThumb1			LeftHandThumb2			LeftHandThumb3			LeftHandThumb3_End			LeftInHandIndex			LeftHandIndex1			LeftHandIndex2			LeftHandIndex3			LeftHandIndex3_End			LeftInHandMiddle			LeftHandMiddle1			LeftHandMiddle2			LeftHandMiddle3			LeftHandMiddle3_End			LeftInHandRing			LeftHandRing1			LeftHandRing2			LeftHandRing3			LeftHandRing3_End			LeftInHandPinky			LeftHandPinky1			LeftHandPinky2			LeftHandPinky3			LeftHandPinky3_End			
		X1	Y1	Z1	X2	Y2	Z2	X3	Y3	Z3	X4	Y4	Z4	X5	Y5	Z5	X6	Y6	Z6	X7	Y7	Z7	X8	Y8	Z8	X9	Y9	Z9	X10	Y10	Z10	X11	Y11	Z11	X12	Y12	Z12	X13	Y13	Z13	X14	Y14	Z14	X15	Y15	Z15	X16	Y16	Z16	X17	Y17	Z17	X18	Y18	Z18	X19	Y19	Z19	X20	Y20	Z20	X21	Y21	Z21	X22	Y22	Z22	X23	Y23	Z23	X24	Y24	Z24	X25	Y25	Z25	X26	Y26	Z26	X27	Y27	Z27	X28	Y28	Z28	X29	Y29	Z29	X30	Y30	Z30	X31	Y31	Z31	X32	Y32	Z32	X33	Y33	Z33	X34	Y34	Z34	X35	Y35	Z35	X36	Y36	Z36	X37	Y37	Z37	X38	Y38	Z38	X39	Y39	Z39	X40	Y40	Z40	X41	Y41	Z41	X42	Y42	Z42	X43	Y43	Z43	X44	Y44	Z44	X45	Y45	Z45	X46	Y46	Z46	X47	Y47	Z47	X48	Y48	Z48	X49	Y49	Z49	X50	Y50	Z50	X51	Y51	Z51	X52	Y52	Z52	X53	Y53	Z53	X54	Y54	Z54	X55	Y55	Z55	X56	Y56	Z56	X57	Y57	Z57	X58	Y58	Z58	X59	Y59	Z59	X60	Y60	Z60	X61	Y61	Z61	X62	Y62	Z62	X63	Y63	Z63	X64	Y64	Z64	X65	Y65	Z65	X66	Y66	Z66	X67	Y67	Z67	X68	Y68	Z68	X69	Y69	Z69	X70	Y70	Z70	X71	Y71	Z71	X72	Y72	Z72	

168	1.392	8446.805	859.65103	-201.189	8492.9097653271	844.1742084929191	-236.51332510821052	8403.815445132184	442.61920750480107	-267.8642491149271	8483.024634184721	69.91527375472373	-390.4049357622632	8459.797582048614	-27.088042201866354	-251.37573186081	8407.936997468089	846.4931440029176	-152.43272408355648	8283.600584781641	455.93996619023153	-70.3727156287805	8213.011833730656	78.06675915954901	88.64515073577178	8270.148096655943	25.53693628777488	260.11256455021794	8412.323996244117	985.6799413505684	-257.7741460343148	8365.738225365125	1059.2833097213688	-299.6511492769598	8311.837996544871	1132.0659142260754	-343.06800896794294	8252.495473982994	1195.0104849738257	-384.69239373836473	8188.110236439794	1262.1197319935463	-425.21231815358465	8145.233443770534	1335.7635188018007	-386.7168605974609	8123.367874472659	1427.2651392184055	-260.61167827344514	8218.18111506852	1243.1028373020447	-424.3439690227384	8258.560661086894	1242.9088490675115	-466.4893572039054	8348.894392760212	1084.9354795664037	-434.14134450512313	8409.917950249854	1075.6813566110864	-501.7272022248624	8417.338448208364	1099.1816887112213	-504.1214991061047	8419.779241998498	1113.7643453634676	-516.3247257258766	8422.085385616938	1120.885560700138	-525.0777567193905	8424.52665455011	1124.2265760927562	-532.5926729145415	8421.056830353169	1090.714925809963	-504.38390486448907	8436.587781010669	1101.337835122855	-513.1584970045059	8442.781373804126	1107.3750756687607	-523.9135617952729	8442.399969665805	1112.031804953671	-532.2633672684235	8439.22969599798	1116.495534304761	-540.2965055639405	8421.946174878132	1082.0283762873057	-504.9922143067457	8437.576960292963	1087.6914713309352	-513.8783973650229	8444.396607499804	1093.0969790399513	-525.6719218289977	8443.965817408693	1098.1477940480884	-535.7733050009955	8440.511231776713	1102.7561073121767	-544.5764563878602	8422.232080318267	1075.6162905989058	-505.1542783145201	8436.64629541917	1075.1138146226062	-513.1306281772723	8442.627655602275	1078.6079415410861	-523.4552725492867	8442.23193830664	1082.833381084124	-533.2229534898188	8438.993141833784	1086.8600104700936	-541.5115518013895	8421.686979150874	1067.9494447372113	-505.4318420419005	8434.75746380335	1062.752139483335	-512.774705490256	8439.542095193296	1063.653149964979	-521.0786089485355	8439.251028421522	1065.8175811009498	-528.2207613977118	8436.380584074966	1068.8564187710424	-535.57322215238	8200.502036531114	1238.7834095652731	-398.3539960511054	8176.276228576987	1200.823349998456	-354.9620383445453	8247.996450946408	1099.0683319010634	-443.0312062420294	8351.64574506708	1080.0917012819689	-416.1979010286363	8354.950353921156	1102.8432280797451	-419.02169644961344	8366.125538618056	1106.6918368074544	-432.55543738137163	8373.71249439434	1106.774251746643	-443.59271540560906	8379.870215775052	1104.6206462779608	-454.173364345183	8353.73627783507	1097.0387989700175	-424.59355725865794	8359.743570970219	1107.1514509206588	-445.4285999246694	8368.286288362113	1106.601682332539	-462.4231184153871	8375.684791653128	1103.4266740429814	-471.42817187703986	8383.2166131869	1098.8876271326517	-477.8290907920344	8353.202958706774	1089.260713869668	-428.37239713038275	8358.772574546809	1094.9192852306865	-450.737536775348	8368.009971301257	1093.2508007604356	-469.7160816570349	8376.895494776416	1088.9074825456157	-480.78867410948135	8385.116985996106	1083.6916523479827	-487.8937124897829	8352.628495587955	1083.5695084200818	-430.49981775553044	8356.991474727842	1083.8819441079554	-452.3590387922012	8364.948265037934	1081.3258849817848	-469.309421346572	8373.468846055308	1076.5512831430842	-480.2068077161688	8381.175327220173	1071.3698078030511	-486.99015934734814	8352.141939054869	1076.228142603737	-432.4320849366259	8355.696712183484	1072.2003231347474	-453.64345446084377	8361.901992860965	1068.432768353232	-467.75892353580093	8368.036533330105	1064.1177665677506	-475.96981828793736	8374.816945970506	1059.0487739937373	-482.12971934832143
169	1.4	8446.805	859.65103	-201.189	8492.496634309073	844.0402003267495	-236.5824291179176	8403.886572318386	442.39582589630726	-267.7856126672659	8483.47808378396	70.15244074595597	-391.0116507560878	8460.784173475222	-27.039798971023647	-252.18602051327002	8408.33040078006	846.6203570753669	-152.36618194782898	8283.968678056724	456.1228732290314	-70.07902809601455	8213.234074859698	78.19756776940852	88.74306678215451	8270.571302302353	25.55353641473016	260.1083018652016	8412.435222937116	985.7180632304035	-257.7582693786669	8365.90941754264	1059.3953068134467	-299.58069251827374	8312.08132757315	1132.2784529736064	-342.9330198461459	8252.810058174515	1195.3443970121898	-384.4865015052191	8188.499337220486	1262.5786239430374	-424.9250811071806	8145.594749399265	1336.2306162751463	-386.4957932983493	8123.761315851171	1427.8053720508135	-260.462295775358	8218.433408103137	1243.461664485113	-424.03313549981704	8258.395769886307	1243.1287728574632	-465.88734123608947	8348.712462720923	1085.6716891973565	-432.9225541565308	8409.261868718173	1076.9413603775538	-500.12639668471945	8416.705639079299	1100.550008917007	-502.4366879774285	8419.222540549395	1115.2143714166198	-514.574941336471	8421.573341400634	1122.3866838685312	-523.2875949076717	8424.044700916205	1125.7653325551278	-530.7730163446805	8420.388256559294	1092.0750049712622	-502.7071072025347	8435.903765819856	1102.8179766136889	-511.3911458988107	8442.129282618174	1108.9247595031627	-522.0924710934241	8441.799142386848	1113.6124440800509	-530.4170182530167	8438.692491401825	1118.0935124207647	-538.434748755457	8421.257471890285	1083.367827917627	-503.33225491563536	8436.862296166371	1089.136874707612	-512.1392200533534	8443.714226194355	1094.615138256466	-523.8766310141511	8443.344059266925	1099.7017982718908	-533.9487536532455	8439.958492962125	1104.3283536279052	-542.7356356703986	8421.529059202889	1076.938233290094	-503.5084455592547	8435.906142561567	1076.5158873018938	-511.42582813178456	8441.913077882591	1080.0700622342692	-521.7042724309761	8441.574475576223	1084.3282894388178	-531.4451677595291	8438.399929808007	1088.3712238272492	-539.7191504272033	8420.971769992397	1069.2467191169444	-503.80554762576116	8433.999031596351	1064.1081696596725	-511.10607299336027	8438.800310074808	1065.0516622745824	-519.3774647197307	8438.54904928465	1067.2372989271196	-526.5022484926325	8435.734453673433	1070.2890205869312	-533.8430103697342	8200.983144863007	1239.253080521328	-398.1579262472653	8177.111188970694	1201.617518081274	-354.9724977993731	8248.446773599713	1099.9441872844618	-442.16351413080963	8351.186612628102	1081.1524663679957	-415.23828906714607	8354.552518528064	1103.9818099587244	-418.0254754637647	8365.75380422389	1107.8467618783845	-431.4352535900713	8373.357315866433	1107.9359748066684	-442.38044502101167	8379.52745257402	1105.784115572436	-452.8793987741492	8353.342401861642	1098.1741675529447	-423.5795508633387	8359.425457560732	1108.3575127351112	-444.28317192396986	8367.998753042495	1107.824477160932	-461.1530229209909	8375.399552590086	1104.6403010857346	-470.0772300412487	8382.922000538085	1100.0804649691927	-476.4089791209176	8352.800984688254	1090.3796128340991	-427.345723159501	8358.440123137827	1096.09823709308	-449.57583570366256	8367.709544744237	1094.445568692791	-468.4170568972811	8376.597194563228	1090.0900175162526	-479.3914937909147	8384.808116302367	1084.850870187714	-486.4205476917389	8352.219096299985	1084.675281356729	-429.4678212389373	8356.638606920582	1085.031059967823	-451.20221066028876	8364.621826511722	1082.486191102255	-468.0317960697081	8373.14367059431	1077.6984114132188	-478.8339166096988	8380.839840359324	1072.4943589949053	-485.54554551596544	8351.719980145113	1077.314267582057	-431.39560737658417	8355.31965466941	1073.3151646267102	-452.4905945748307	8361.543535996158	1069.5523306260009	-466.508151705668	8367.677757965923	1065.2256658515953	-474.64898737008235	8374.448322883449	1060.1354932689037	-480.7450246830721
170	1.408	8446.805	859.65103	-201.189	8492.084249546493	843.9061044785875	-236.6520208408354	8403.957050878318	442.1729025267905	-267.70959350468775	8483.92873477332	70.38883815484431	-391.620448545795	8461.766206008622	-26.99192252564434	-252.9980885799929	8408.72317433431	846.747732125296	-152.29907582441882	8284.336359622283	456.30564371059387	-69.78601154963077	8213.456348871567	78.32746549972315	88.83870803496927	8270.99315254372	25.56867220257621	260.1019883815704	8412.545894609806	985.7558647624522	-257.7426967477387	8366.079637702736	1059.506471059568	-299.5108116833939	8312.323152496516	1132.4894465774416	-342.7988634293354	8253.122586237072	1195.6759374750993	-384.2815928328827	8188.885804144911	1263.0342844149475	-424.6389820606427	8145.953131084031	1336.6943741080852	-386.2759098195799	8124.152129933791	1428.3423744750244	-260.3140683631121	8218.683311832185	1243.8172295928618	-423.723820557443	8258.228305139288	1243.3433482151017	-465.2884058778597	8348.523185777418	1086.4000461214835	-431.705888513353	8408.595090315757	1078.1851425405482	-498.5235052355341	8416.061498919891	1101.9003156699068	-500.7505739545992	8418.653532666727	1116.6449589483082	-512.8234229887357	8421.048311861974	1123.8674566174968	-521.4952229691391	8423.549196326625	1127.28304727084	-528.9506021445313	8419.708318453928	1093.417153505253	-501.02852321931596	8435.2072657565	1104.2780536213083	-509.6214863570201	8441.463801060308	1110.4531151327244	-520.268305023441	8441.184379431099	1115.1711907699114	-528.5670793978942	8438.14091168151	1119.6692804431616	-536.5689508695277	8420.557438657574	1084.6896527079352	-501.6700295678945	8436.135227295816	1090.562734200953	-510.3970082100128	8443.018460037792	1096.1124218998632	-522.0774066948826	8442.708262209806	1101.2342688877493	-532.1196183114059	8439.391236257115	1105.8787297918768	-540.8897227366075	8420.81476156155	1078.2428160749619	-501.8600241523469	8435.153799933438	1077.89910746443	-509.7174788355402	8441.185465957898	1081.512221076815	-519.9488772238427	8440.903352964571	1085.8026284979612	-529.662326411743	8437.792610017821	1089.8615643814585	-537.921199902913	8420.245370367975	1070.5270199606716	-502.17628535814254	8433.22862753776	1065.4460875971336	-509.43336718769433	8438.04589622454	1066.4312607026136	-517.6714768549971	8437.833994386916	1068.6377017245773	-524.7783651663964	8435.074856135536	1071.7020626445724	-532.1069650825048	8201.461779246709	1239.7201737005016	-397.96253108787226	8177.944080200672	1202.4097533397207	-354.9813310063438	8248.894349214328	1100.8137525870159	-441.29361003335947	8350.72380756674	1082.2000564760333	-414.2775162472316	8354.149704289299	1105.1057996352206	-417.02807290593023	8365.376132039015	1108.986435494356	-430.31421022656565	8372.99569524163	1109.0820184567278	-441.16751302482015	8379.177966730416	1106.9315753359072	-451.5849141407407	8352.944012575133	1099.2948331550363	-422.5642218378165	8359.10215565592	1109.5470521046282	-443.136271278668	8367.70556330923	1109.029976981155	-459.881590493326	8375.108290820008	1105.8365395693704	-468.7252004868849	8382.62100730603	1101.25609769039	-474.9880971979426	8352.394965746471	1091.483980325899	-426.31767171479237	8358.103221604195	1097.2609754602245	-448.4125811051641	8367.404223651103	1095.6233092580244	-467.11662024871816	8376.293586191996	1091.2554262426097	-477.99319915722236	8384.493561798656	1085.9931693047618	-484.94661444028225	8351.8060011302	1085.7666852506177	-428.43440968996106	8356.281985700269	1086.1644252301983	-450.0437693906812	8364.291313262907	1083.6300697520612	-466.7526748214349	8372.814056511037	1078.8290340984538	-477.4598132274632	8380.499577347984	1073.6026079042606	-484.10004302453075	8351.294740157406	1078.3863041697332	-430.3576966363373	8354.939521818438	1074.4148056583115	-451.3360997136517	8361.181849777606	1070.6562071911478	-465.25582979953236	8367.315537776032	1066.3178499114474	-473.3268089884921	8374.075984727031	1061.2066932167618	-479.3592667408061
171	1.417	8446.805	859.65103	-201.189	8491.672648083406	843.7719313992592	-236.7220970440499	8404.026872007309	441.9504577563987	-267.6362110330833	8484.376536374582	70.62444310851056	-392.2312908153125	8462.743577140922	-26.944418555667717	-253.8118799242572	8409.115283252326	846.8752596109309	-152.23140837228578	8284.703597824015	456.48826207469403	-69.4936931862157	8213.678638184814	78.45643714193852	88.93205525645632	8271.413606604943	25.58233500792072	260.0936142710567	8412.655999552135	985.7933413112434	-257.727430886843	8366.24886724983	1059.6167893460051	-299.4415152600658	8312.563444292538	1132.6988703305112	-342.665554681437	8253.43302269481	1196.0050677822426	-384.0776891631604	8189.269592890975	1263.486660507137	-424.3540497944964	8146.308545353473	1337.154738254702	-386.0572338542235	8124.540272236339	1428.8760871153995	-260.1670138158974	8218.930794182324	1244.169487659039	-423.4160567617937	8258.058267588567	1243.552531131945	-464.6926149978755	8348.326540331052	1087.1204521042168	-430.4914567830054	8407.917614963048	1079.4125201135237	-496.9186469244939	8415.406022870706	1103.2324082266496	-499.06328690465836	8418.072202593927	1118.0558933569134	-511.0703037975761	8420.510274293129	1125.3276555556072	-519.7007749957509	8423.040112823914	1128.7794902574703	-527.1255641214958	8419.01701379306	1094.7411717117345	-499.3482796814985	8434.498274303449	1105.7178458925353	-507.8496499585965	8440.784915533404	1111.95991021686	-518.44119577676	8440.555660358154	1116.70780727735	-526.7136824455691	8437.574929085473	1121.2225975749377	-534.6992427176425	8419.846074623405	1085.9936541208754	-500.0056612382258	8435.39574987071	1091.9688349370017	-508.65188745366527	8442.309297725245	1097.5886023931857	-520.2743746382703	8442.058406787333	1102.7449720309803	-530.2860239517124	8438.809434265924	1107.4069987144987	-539.0388414228513	8420.089188183874	1079.5298451542296	-500.20913428701385	8434.389266708484	1079.2632671932122	-508.00570049629147	8440.444812710988	1082.9341996063927	-518.189206729756	8440.218555625892	1087.2561740139	-527.8745482012517	8437.171160207097	1091.3308049853808	-536.1178177768456	8419.507782388024	1071.7901573854185	-500.54417192668416	8432.446253219803	1066.765692801486	-507.7567026829015	8437.27885058009	1067.791737193889	-515.960758803709	8437.105855213884	1070.0185776456133	-523.0492237005943	8434.401776489078	1073.0953307735272	-530.3651972710234	8201.937888709603	1240.1846385419262	-397.7678296971112	8178.774824762783	1203.1999820823253	-354.9885290431396	8249.339128134636	1101.6769258688885	-440.421553022339	8350.257349125504	1083.2343201980998	-413.3156544038543	8353.741918878079	1106.215032415481	-416.0295636833806	8364.992522867506	1110.1106883965394	-429.1923938773118	8372.627629496164	1110.2122107668113	-439.9540144447773	8378.821752847038	1108.0628518460408	-450.29001277323357	8352.541119663767	1100.400630730117	-421.5476457593868	8358.773665402916	1110.7198891571072	-441.9879835269789	8367.406714538747	1110.2179967010973	-458.6089174247837	8374.810999741001	1107.015204691143	-467.3721872665636	8382.313625917586	1102.41434311723	-473.5665562235461	8351.984914590252	1092.5736534387152	-425.2883190459713	8357.761874981956	1098.4073241209783	-447.24785930776966	8367.094008283955	1096.7838408857274	-465.81486983539673	8375.984667745286	1092.4035276650181	-476.5938977242429	8384.173319605537	1087.1183715888756	-483.4720280865401	8351.389225150326	1086.8435590341235	-427.39965954437537	8355.921621270658	1087.28186834951	-448.8838005108805	8363.956731787897	1084.7573450802588	-465.4721534578503	8372.480008440476	1079.942976034753	-476.08460250967204	8380.154542030788	1074.6943822323356	-482.65376419224003	8350.866237278495	1079.4440942527187	-429.31842935180276	8354.55632922067	1075.499080148843	-450.1800548618772	8360.81694755578	1071.7442291371158	-464.0020511067241	8366.949885105854	1067.3941506351182	-472.0033830749323	8373.699943349518	1062.2622084349675	-477.97255199933704
